<svg fill="#000000" xmlns="http://www.w3.org/2000/svg" width="640" height="640" viewBox="0 0 640 640" version="1.1">
	<path d="M 301 87.018 C 276.155 90.473, 255.063 98.533, 234.654 112.370 L 225.231 118.759 212.380 105.880 L 199.529 93 193.225 93 C 185.269 93, 179.988 95.550, 176.251 101.197 C 173.926 104.710, 173.500 106.408, 173.500 112.163 L 173.500 118.971 186.491 131.991 C 196.446 141.969, 199.251 145.338, 198.491 146.409 C 188.689 160.226, 179.971 176.939, 175.595 190.305 C 174.189 194.598, 172.039 203.148, 170.817 209.305 C 167.883 224.088, 167.690 249.585, 170.399 264.500 C 174.025 284.463, 182.613 305.792, 193.350 321.500 L 198.818 329.500 186.387 342.036 C 174.310 354.215, 173.939 354.719, 173.343 359.750 C 172.830 364.086, 173.154 365.788, 175.338 370.214 C 178.944 377.522, 183.368 380.350, 191.891 380.796 L 198.500 381.142 210.985 368.571 C 217.852 361.657, 223.814 356, 224.234 356 C 224.654 356, 227.585 357.985, 230.749 360.410 C 238.105 366.051, 252.200 374.060, 261.915 378.121 C 294.903 391.907, 333.403 393.474, 367 382.398 C 378.104 378.737, 397.398 369.007, 406.475 362.490 C 410.861 359.341, 414.912 356.587, 415.478 356.370 C 416.043 356.153, 422.123 361.606, 428.988 368.488 L 441.470 381 447.397 381 C 458.799 381, 465.807 374.272, 466.759 362.411 L 467.278 355.947 454.241 342.723 L 441.204 329.500 446.197 322.500 C 456.562 307.969, 465.803 285.104, 469.638 264.500 C 472.381 249.768, 472.150 222.219, 469.168 208.300 C 464.788 187.857, 457.174 169.567, 446.224 153.182 L 440.665 144.863 453.583 131.917 L 466.500 118.971 466.500 112.163 C 466.500 106.408, 466.074 104.710, 463.749 101.197 C 460.006 95.541, 454.733 93, 446.740 93 L 440.401 93 427.563 105.975 L 414.725 118.950 411.112 116.104 C 396.055 104.243, 372.285 93.645, 350.261 88.976 C 339.102 86.610, 311.752 85.523, 301 87.018 M 215 101.500 C 219.651 106.175, 223.802 110, 224.226 110 C 224.649 110, 227.134 108.476, 229.748 106.613 C 232.361 104.750, 238.531 100.925, 243.458 98.113 L 252.416 93 229.480 93 L 206.544 93 215 101.500 M 397.935 99.010 C 403.657 102.316, 409.807 106.141, 411.603 107.510 C 413.398 108.880, 415.234 109.985, 415.683 109.967 C 416.756 109.923, 419.144 107.746, 426.971 99.674 L 433.442 93 410.487 93 L 387.532 93 397.935 99.010 M 298 99.412 C 274.605 103.548, 254.927 111.890, 236.495 125.485 C 206.855 147.347, 187.542 179.401, 181.363 216.988 C 179.445 228.655, 180.055 254.641, 182.513 266 C 188.498 293.659, 202.695 318.955, 223.271 338.627 C 238.836 353.507, 255.252 363.656, 274.527 370.314 C 291.894 376.313, 299.276 377.475, 320 377.475 C 346.006 377.475, 359.683 374.309, 382.500 363.004 C 420.645 344.105, 448.172 308.503, 457.502 266 C 460.095 254.193, 460.626 228.441, 458.537 215.850 C 451.308 172.265, 424.326 134.771, 385 113.663 C 375.876 108.766, 360.133 103.158, 348 100.484 C 337.857 98.248, 308.180 97.612, 298 99.412 M 188.315 103.985 C 183.396 106.016, 182.410 113.605, 186.635 116.927 C 188.084 118.067, 190.273 119, 191.500 119 C 195.281 119, 199 115.300, 199 111.538 C 199 105.701, 193.529 101.834, 188.315 103.985 M 445.315 103.985 C 440.574 105.942, 439.578 112.669, 443.455 116.545 C 446.454 119.545, 449.870 119.677, 453.365 116.927 C 460.084 111.643, 453.277 100.699, 445.315 103.985 M 295 110.055 C 289.775 111.106, 284.264 112.478, 282.752 113.103 L 280.005 114.241 284.981 120.370 C 292.528 129.665, 300.482 141.723, 305.935 152.133 C 310.751 161.328, 318 180.463, 318 183.980 C 318 185.448, 319.205 185.896, 324.747 186.489 C 328.457 186.887, 334.403 188.268, 337.960 189.559 C 341.517 190.850, 344.637 191.696, 344.894 191.439 C 345.756 190.578, 346.929 168.554, 346.359 163.951 C 345.813 159.544, 345.916 159.322, 349.648 156.871 C 355.643 152.934, 367.060 146.726, 367.498 147.165 C 368.050 147.716, 363.473 170.370, 361.513 176.793 C 360.624 179.704, 358.398 185.641, 356.565 189.986 L 353.233 197.886 357.459 202.296 C 359.784 204.722, 363.180 209.360, 365.006 212.603 C 366.832 215.847, 368.529 218.725, 368.775 219 C 369.503 219.811, 383.584 204.240, 390.931 194.500 C 394.665 189.550, 399.831 181.854, 402.410 177.397 C 407.335 168.886, 415 151.950, 415 149.578 C 415 147.479, 402.147 136.010, 392.785 129.754 C 385.619 124.966, 371.091 117, 369.525 117 C 369.236 117, 369 120.606, 369 125.013 L 369 133.025 363.550 135.436 C 360.552 136.761, 355.321 139.475, 351.925 141.465 C 348.529 143.455, 345.556 144.889, 345.318 144.651 C 345.080 144.413, 344.024 140.003, 342.971 134.851 C 341.919 129.698, 339.807 121.662, 338.279 116.991 L 335.500 108.500 320 108.322 C 308.156 108.186, 302.259 108.595, 295 110.055 M 173 150 C 173 162.650, 173.338 172.972, 173.750 172.937 C 174.162 172.903, 175.985 169.840, 177.799 166.131 C 179.614 162.421, 183.389 155.884, 186.187 151.603 L 191.276 143.819 182.910 135.409 C 178.309 130.784, 174.197 127, 173.772 127 C 173.347 127, 173 137.350, 173 150 M 457.083 135.417 L 448.710 143.834 453.487 151.086 C 456.115 155.074, 460.044 161.637, 462.219 165.669 C 464.394 169.701, 466.360 173, 466.587 173 C 466.814 173, 467 162.650, 467 150 C 467 137.350, 466.653 127, 466.228 127 C 465.803 127, 461.688 130.788, 457.083 135.417 M 241.870 133.663 C 232.330 140.670, 223.596 149.421, 215.780 159.805 C 211.928 164.923, 208.974 169.307, 209.214 169.548 C 209.455 169.788, 213.442 170.663, 218.076 171.492 C 222.709 172.322, 228.692 173.577, 231.370 174.282 L 236.240 175.564 238.636 183.863 C 239.954 188.427, 241.700 193.452, 242.516 195.031 C 243.332 196.609, 244 198.072, 244 198.282 C 244 198.491, 237.588 198.635, 229.750 198.601 C 216.581 198.545, 197.691 200.337, 195.194 201.880 C 193.746 202.775, 190.308 220.586, 189.573 231 C 189.025 238.771, 190.104 255.437, 191.227 256.561 C 191.486 256.819, 195.928 254.577, 201.099 251.578 C 219.048 241.168, 242.850 233.079, 260.946 231.239 L 268.212 230.500 270.896 222.500 C 272.372 218.100, 274.795 212.715, 276.279 210.534 C 279.754 205.428, 280.796 206.020, 260.353 201.489 C 258.766 201.138, 257.304 198.859, 254.749 192.757 C 248.873 178.718, 248.619 179.485, 257.836 183.430 C 262.216 185.304, 270.327 189.573, 275.860 192.916 L 285.921 198.993 291.332 195.203 C 294.308 193.118, 299.389 190.547, 302.622 189.489 C 305.855 188.431, 308.681 187.445, 308.902 187.298 C 309.671 186.785, 302.063 176.143, 294.375 166.981 C 283.187 153.645, 268.099 140.933, 251.870 131.169 L 248.240 128.985 241.870 133.663 M 432.448 180.658 C 419.552 197.568, 396.342 216.382, 377.215 225.428 L 371.024 228.356 371.636 233.558 C 372.185 238.232, 370.895 249.505, 369.349 253.532 C 368.849 254.835, 369.607 255.037, 374.074 254.792 L 379.393 254.500 383.263 260.851 C 385.391 264.344, 386.869 267.464, 386.548 267.786 C 386.227 268.107, 381.162 267.304, 375.293 266.001 C 367.387 264.246, 364.519 263.944, 364.222 264.834 C 363.356 267.433, 355.036 276.703, 351.159 279.389 L 347.063 282.229 354.336 287.540 C 363.508 294.238, 380.810 303.892, 391.016 308.007 C 398.735 311.118, 398.863 311.227, 399.568 315.333 C 399.961 317.625, 400.557 324.185, 400.892 329.910 L 401.500 340.321 407.320 334.996 L 413.140 329.671 412.438 322.178 C 411.781 315.169, 411.854 314.730, 413.573 315.389 C 414.583 315.777, 417.315 316.356, 419.644 316.675 L 423.879 317.255 429.314 308.878 C 435.706 299.025, 438.327 293.998, 441.728 285.067 C 445.089 276.243, 448.017 266, 447.179 266.001 C 446.806 266.002, 443.125 266.683, 439 267.515 C 434.875 268.347, 424.750 269.285, 416.500 269.599 L 401.500 270.169 397.500 261.967 C 395.300 257.456, 393.384 253.470, 393.242 253.110 C 393.101 252.749, 396.758 251.677, 401.370 250.728 C 414.023 248.123, 427.574 243.439, 439.123 237.677 L 449.500 232.500 449.806 227.725 C 450.433 217.925, 444.562 194.980, 438.214 182.426 L 435.377 176.817 432.448 180.658 M 306.798 194.931 C 303.661 195.934, 299.109 197.918, 296.681 199.341 C 291.543 202.352, 282.720 211.666, 280.063 216.882 C 271.372 233.947, 274.042 254.578, 286.691 268.101 C 301.644 284.087, 324.662 287.593, 343.228 276.712 C 348.566 273.584, 357.117 264.654, 359.779 259.427 C 366.598 246.040, 366.697 230.091, 360.042 217.073 C 357.141 211.399, 348.752 202.525, 343.228 199.288 C 332.632 193.078, 318.048 191.334, 306.798 194.931 M 256.741 245.306 C 234.469 256.830, 215.517 272.068, 202.190 289.169 C 201.089 290.582, 201.374 291.808, 204.054 297.169 C 209.690 308.442, 218.257 320.296, 227.480 329.582 C 240.164 342.353, 240.177 342.360, 249.503 341.063 C 253.714 340.477, 258.249 339.724, 259.580 339.390 C 261.989 338.786, 262 338.820, 262 346.792 L 262 354.800 270.272 358.263 C 283.835 363.940, 300.906 368, 311.217 368 C 315.567 368, 316.126 367.773, 315.538 366.250 C 311.942 356.935, 307.821 343.670, 306.200 336.192 L 304.221 327.062 312.715 322.469 C 317.387 319.943, 321.308 318.017, 321.429 318.188 C 321.550 318.360, 322.667 320.975, 323.913 324 C 329.178 336.790, 347.245 365, 350.171 365 C 352.773 365, 370.103 358.531, 377.961 354.626 C 386.967 350.151, 399.014 342.463, 398.981 341.213 C 398.970 340.821, 395.933 338.743, 392.231 336.595 C 374.990 326.591, 354.923 308.933, 344.020 294.171 C 339.228 287.682, 338.315 286.909, 336.054 287.429 C 328.441 289.178, 320.183 290.154, 316.816 289.702 C 312.322 289.099, 312.322 289.100, 314.926 298.488 C 315.985 302.307, 316.649 305.758, 316.403 306.157 C 315.829 307.086, 304.473 314, 303.521 314 C 303.127 314, 302.960 307.966, 303.152 300.591 L 303.500 287.181 297.500 284.216 C 294.200 282.586, 289.302 279.431, 286.616 277.206 L 281.732 273.161 277.843 281.201 C 272.890 291.443, 267.677 307.037, 265.458 318.250 C 264.506 323.063, 263.338 327, 262.864 327 C 262.389 327, 257.838 327.682, 252.750 328.516 C 247.663 329.350, 241.975 330.282, 240.111 330.588 C 236.748 331.139, 236.726 331.118, 237.367 327.914 C 238.271 323.394, 244.502 309.153, 249.769 299.569 C 254.994 290.062, 263.273 278.723, 270.707 270.894 L 276.030 265.288 273.027 258.871 C 271.375 255.342, 269.733 250.214, 269.377 247.477 C 268.300 239.195, 268.490 239.228, 256.741 245.306 M 173.684 302.791 C 172.876 304.281, 172.886 347, 173.694 347 C 174.161 347, 178.259 343.266, 182.800 338.701 L 191.055 330.403 187.025 324.774 C 184.808 321.678, 180.986 315.306, 178.531 310.613 C 176.076 305.920, 173.895 302.400, 173.684 302.791 M 463.128 308 C 461.274 311.575, 457.383 318.156, 454.482 322.625 L 449.207 330.751 457.573 339.073 C 462.174 343.650, 466.186 347.147, 466.489 346.845 C 466.791 346.542, 466.918 336.216, 466.770 323.897 L 466.500 301.500 463.128 308 M 186.455 357.455 C 182.230 361.679, 183.550 367.950, 189.069 369.874 C 197.022 372.647, 202.948 362.251, 196.365 357.073 C 192.870 354.323, 189.454 354.455, 186.455 357.455 M 443.455 357.455 C 439.408 361.501, 440.325 367.392, 445.329 369.496 C 448.916 371.005, 453.499 369.806, 455.021 366.961 C 456.870 363.505, 456.161 359.272, 453.365 357.073 C 449.870 354.323, 446.454 354.455, 443.455 357.455 M 214 372.500 L 205.544 381 228.022 380.989 L 250.500 380.977 244.076 377.402 C 240.543 375.435, 234.376 371.616, 230.372 368.913 C 226.367 366.211, 222.948 364, 222.773 364 C 222.599 364, 218.651 367.825, 214 372.500 M 410.500 368.452 C 407.200 370.849, 401.125 374.647, 397 376.891 L 389.500 380.972 411.978 380.986 L 434.456 381 426 372.500 C 421.349 367.825, 417.309 364.021, 417.022 364.047 C 416.735 364.073, 413.800 366.055, 410.500 368.452 M 177.778 411.750 L 177.500 425.500 170.250 425.794 L 163 426.088 163 447.110 C 163 459.688, 163.416 468.908, 164.035 470.066 C 165.020 471.906, 166.404 472, 192.488 472 C 210.736 472, 220.735 472.378, 222.385 473.130 C 226.535 475.021, 227.066 478.094, 226.773 498.512 L 226.500 517.500 208.500 517.628 C 198.600 517.699, 188.588 517.811, 186.250 517.878 L 182 518 182 527 L 182 536 231.500 536 L 281 536 281 522 L 281 508 272.111 508 C 264.849 508, 262.789 507.650, 260.861 506.089 L 258.500 504.178 258.224 451.089 L 257.949 398 254.474 398 L 251 398 251 428 L 251 458 247.515 458 L 244.030 458 243.765 428.250 L 243.500 398.500 239.750 398.190 L 236 397.879 236 427.940 L 236 458 232.500 458 L 229 458 229 428 L 229 398 225 398 L 221 398 221 428 L 221 458 217.500 458 L 214 458 214 428 L 214 398 210.500 398 L 207 398 207 428 L 207 458 203.500 458 L 200 458 200 428 L 200 398 196 398 L 192 398 192 428 L 192 458 188.500 458 L 185 458 185 428 L 185 398 181.528 398 L 178.056 398 177.778 411.750 M 265 435 L 265 472 269 472 L 273 472 273 435 L 273 398 269 398 L 265 398 265 435 M 280 435 L 280 472 283.500 472 L 287 472 287 435 L 287 398 283.500 398 L 280 398 280 435 M 294 435 L 294 472 298 472 L 302 472 302 435 L 302 398 298 398 L 294 398 294 435 M 309 434.940 L 309 472 313.012 472 L 317.025 472 316.762 435.250 L 316.500 398.500 312.750 398.190 L 309 397.879 309 434.940 M 323.667 398.667 C 323.300 399.033, 323 415.683, 323 435.667 L 323 472 327 472 L 331 472 331 435 L 331 398 327.667 398 C 325.833 398, 324.033 398.300, 323.667 398.667 M 338 435 L 338 472 342 472 L 346 472 346 435 L 346 398 342 398 L 338 398 338 435 M 353 435 L 353 472 356.500 472 L 360 472 360 435 L 360 398 356.500 398 L 353 398 353 435 M 367 435 L 367 472 371 472 L 375 472 375 435 L 375 398 371 398 L 367 398 367 435 M 382 450.305 C 382 513.314, 383.250 508, 368.427 508 L 359 508 359 522 L 359 536 408.500 536 L 458 536 458 527 L 458 518 453.750 517.964 C 451.413 517.945, 441.400 517.832, 431.500 517.714 L 413.500 517.500 413.198 499.500 C 412.861 479.469, 413.605 474.957, 417.538 473.165 C 419.284 472.369, 428.778 472, 447.512 472 C 473.596 472, 474.980 471.906, 475.965 470.066 C 476.584 468.908, 477 459.675, 477 447.066 L 477 426 470.028 426 L 463.056 426 462.778 412.250 L 462.500 398.500 458.750 398.190 L 455 397.879 455 427.940 L 455 458 451.500 458 L 448 458 448 428 L 448 398 444 398 L 440 398 440 428 L 440 458 436.500 458 L 433 458 433 428 L 433 398 429.500 398 L 426 398 426 428 L 426 458 422.500 458 L 419 458 419 428 L 419 398 415 398 L 411 398 411 428 L 411 458 407.500 458 L 404 458 404 427.940 L 404 397.879 400.250 398.190 L 396.500 398.500 396.235 428.250 L 395.970 458 393 458 L 390.030 458 389.765 428.250 L 389.500 398.500 385.750 398.190 L 382 397.879 382 450.305 M 288 489.978 C 286.731 490.779, 286.455 495.620, 286.209 521.421 C 285.926 550.991, 285.979 551.979, 287.959 553.959 C 289.923 555.923, 291.131 556, 320 556 C 348.667 556, 350.089 555.911, 352 554 C 353.910 552.090, 354 550.667, 354 522.434 C 354 503.966, 353.611 492.142, 352.965 490.934 C 351.975 489.085, 350.561 489.001, 320.715 489.015 C 302.815 489.024, 288.860 489.435, 288 489.978 M 192.200 494.200 C 191.448 494.952, 191 498.689, 191 504.200 L 191 513 203 513 L 215 513 215 504.571 C 215 493.378, 214.596 493, 202.629 493 C 196.784 493, 192.960 493.440, 192.200 494.200 M 426.571 494.571 C 425.391 495.751, 425 498.242, 425 504.571 L 425 513 437 513 L 449 513 449 504.200 C 449 498.689, 448.552 494.952, 447.800 494.200 C 445.892 492.292, 428.547 492.595, 426.571 494.571 M 294.200 496.200 C 292.345 498.055, 292.507 546.346, 294.373 547.895 C 295.341 548.698, 303.241 548.956, 321.123 548.767 L 346.500 548.500 346.767 523.123 C 346.956 505.241, 346.698 497.341, 345.895 496.373 C 344.346 494.507, 296.055 494.345, 294.200 496.200 M 298.102 500.377 C 297.304 501.338, 297.041 508.204, 297.230 523.127 L 297.500 544.500 320 544.500 L 342.500 544.500 342.770 523.127 C 342.959 508.204, 342.696 501.338, 341.898 500.377 C 340.995 499.289, 336.404 499, 320 499 C 303.596 499, 299.005 499.289, 298.102 500.377" stroke="none" fill="#000000" fill-rule="evenodd"/>
</svg>