<svg fill="#000000" xmlns="http://www.w3.org/2000/svg" width="640" height="640" viewBox="0 0 640 640" version="1.1">
	<path d="M 253.260 162.935 C 254.126 172.483, 258.556 178.721, 266.500 181.579 C 268.584 182.329, 270.165 184.046, 271.679 187.201 C 274.325 192.716, 277.923 195.700, 283.671 197.147 L 288 198.237 288 209.936 L 288 221.635 282.250 223.418 C 254.257 232.102, 227.032 255.057, 213.322 281.536 C 208.075 291.669, 203.532 304.604, 201.551 315.047 C 200.698 319.543, 200 323.333, 200 323.469 C 200 323.605, 197.531 325.356, 194.513 327.360 C 186.055 332.976, 183.697 337.296, 183.180 348.128 C 182.635 359.508, 184.321 364.348, 190.826 370.088 C 199.597 377.827, 214.414 384.165, 236.304 389.540 C 299.506 405.059, 390.498 400.254, 434.500 379.075 C 445.837 373.618, 452.125 368.636, 455.144 362.718 C 456.925 359.226, 457.164 357.282, 456.829 348.957 C 456.487 340.432, 456.110 338.765, 453.707 335.133 C 452.203 332.861, 448.561 329.401, 445.612 327.443 L 440.250 323.883 438.545 315.192 C 430.121 272.273, 398.140 235.948, 357.750 223.418 L 352 221.635 352 209.317 L 352 197 355.050 197 C 360.926 197, 366.512 192.496, 369.498 185.350 C 370.450 183.071, 371.698 182.006, 374.009 181.498 C 381.048 179.952, 387 170.622, 387 161.134 L 387 157 319.861 157 L 252.722 157 253.260 162.935 M 279.970 184.944 C 281.550 187.896, 282.936 188.457, 290 189 L 296.500 189.500 296.776 204.709 C 296.983 216.141, 297.356 219.824, 298.276 219.542 C 298.949 219.336, 300.738 218.896, 302.250 218.564 L 305 217.962 305 203.481 L 305 189 324 189 L 343 189 343 186 L 343 183 310.965 183 C 279.545 183, 278.950 183.037, 279.970 184.944 M 303.500 227.039 C 251.644 235.110, 211.982 277.675, 208.326 329.181 C 207.738 337.473, 207.844 338.205, 209.964 340.462 C 212.985 343.677, 221.262 347.504, 231.844 350.577 C 241.275 353.316, 267.017 358.107, 268.241 357.351 C 268.658 357.093, 269.011 345.996, 269.024 332.691 C 269.051 306.565, 269.554 302.686, 274.113 293.424 C 282.788 275.799, 299.994 265.066, 319.645 265.021 C 338.712 264.977, 354.556 273.881, 363.991 289.941 C 370.574 301.147, 371.098 304.290, 371.032 332.183 C 370.999 345.758, 371.331 357.087, 371.770 357.358 C 372.925 358.071, 393.959 354.330, 404.689 351.502 C 415.990 348.523, 424.231 345.114, 428.647 341.590 C 431.761 339.105, 432 338.500, 432 333.088 C 432 319.387, 426.553 299.407, 418.907 285.055 C 404.088 257.243, 378.587 237.458, 347.074 229.324 C 336.271 226.536, 314.178 225.377, 303.500 227.039 M 277.698 244.433 C 258.790 252.208, 240.060 269.716, 230.750 288.317 C 226.527 296.755, 226.136 299.467, 228.928 300.961 C 231.874 302.538, 234.008 301.148, 236.087 296.296 C 241.526 283.609, 255.652 267.035, 267.500 259.440 C 270.800 257.325, 276.842 254.137, 280.928 252.355 C 289.033 248.821, 290.673 247.127, 289.007 244.013 C 287.608 241.399, 284.826 241.502, 277.698 244.433 M 310.741 288.369 C 304.146 290.828, 298.705 295.782, 295.219 302.500 C 291.824 309.044, 291.591 319.226, 294.680 326.089 C 302.643 343.784, 325.537 348.070, 339.386 334.459 C 345.050 328.892, 347.447 322.953, 347.441 314.500 C 347.437 308.876, 346.915 306.499, 344.783 302.410 C 341.973 297.023, 337.089 292.136, 331.737 289.357 C 327.407 287.110, 315.605 286.554, 310.741 288.369 M 405.750 292.080 C 403.379 293.461, 403.516 294.852, 407.032 305.093 C 408.700 309.950, 410.549 317.654, 411.141 322.212 C 412.543 333.008, 413.356 335, 416.356 335 C 420.241 335, 421.319 332.753, 420.553 326.258 C 418.950 312.673, 413.551 295.022, 410.151 292.250 C 408.330 290.765, 408.027 290.754, 405.750 292.080 M 311.668 294.190 L 308.835 295.222 311.891 297.080 C 317.491 300.486, 316.852 308.273, 310.797 310.403 C 307.711 311.488, 303.086 309.046, 302.263 305.898 C 301.494 302.958, 300.426 303.635, 299.158 307.866 C 296.580 316.472, 298.433 323.707, 304.863 330.137 C 313.587 338.861, 325.250 339.277, 334.227 331.183 C 349.584 317.338, 340.373 292.782, 319.934 293.079 C 316.945 293.122, 313.225 293.622, 311.668 294.190 M 223.707 325.016 C 219.185 328.573, 220.501 334.273, 226.322 336.344 C 228.206 337.015, 231.946 335.530, 233.235 333.600 C 233.639 332.995, 233.976 331.349, 233.985 329.941 C 234.019 324.198, 228.257 321.437, 223.707 325.016 M 245 325 C 243.011 326.989, 242.363 331.500, 243.765 333.600 C 244.652 334.929, 248.439 337, 249.980 337 C 251.874 337, 256 332.202, 256 330 C 256 327.322, 251.706 323, 249.045 323 C 247.920 323, 246.100 323.900, 245 325 M 195.141 337.856 C 188.936 344.485, 192.323 350.842, 205.761 357.789 C 219.842 365.069, 242.157 370.902, 270 374.583 C 286.503 376.764, 337.092 377.651, 355.206 376.077 C 389.877 373.063, 416.488 366.899, 434.239 357.769 C 447.693 350.849, 451.085 344.464, 444.818 337.856 L 441.635 334.500 440.991 337.500 C 438.785 347.778, 428.256 354.371, 404.476 360.365 C 375.454 367.680, 337.196 370.853, 300.500 368.988 C 277.531 367.821, 268.725 366.843, 250.280 363.412 C 218.033 357.413, 202.845 350.101, 199.604 339.017 L 198.283 334.500 195.141 337.856 M 449 380.147 C 417.440 401.961, 337.478 412.250, 268 403.437 C 236.524 399.444, 206.548 390.586, 192.553 381.140 C 189.917 379.362, 187.504 378.162, 187.191 378.476 C 186.256 379.411, 190.883 392.831, 195.633 402.957 C 212.060 437.976, 243.770 465.811, 280 477.013 C 293.642 481.230, 305.451 483, 319.955 483 C 335.192 483, 347.977 481, 361.651 476.479 C 401.010 463.463, 434.077 431.984, 448.371 393.924 C 450.726 387.655, 454.088 376.982, 453.696 377.018 C 453.588 377.028, 451.475 378.436, 449 380.147" stroke="none" fill="#000000" fill-rule="evenodd"/>
</svg>